<svg width="32" height="32" viewBox="0 0 32 32" fill="none" xmlns="http://www.w3.org/2000/svg">
<path d="M25.3988 20.6503C25.4274 20.6135 25.456 20.5808 25.4806 20.544C26.0491 19.7587 26.3517 18.8139 26.3517 17.8446C26.3517 16.8016 25.9918 15.8528 25.411 15.0798H25.4274L16.1759 4L6.92433 15.0757H6.9407C6.33129 15.8732 6 16.8466 6 17.8446C6 18.8139 6.30675 19.7587 6.87117 20.544C6.89571 20.5808 6.92434 20.6135 6.95297 20.6503L16.1759 9.60736L25.3988 20.6503Z" fill="url(#paint0_linear_13223_16755)"/>
<path d="M6.95703 20.6538C7.51736 21.3859 8.28628 21.938 9.16562 22.2284C9.19425 22.2366 9.22288 22.2448 9.25151 22.253L16.1799 13.9585V9.61084L6.95703 20.6538Z" fill="url(#paint1_linear_13223_16755)"/>
<path d="M16.1758 9.60565V13.9492L23.1042 22.2437C23.1328 22.2355 23.1615 22.2273 23.1901 22.2191C24.0694 21.9288 24.8343 21.3766 25.3987 20.6445L16.1758 9.60156V9.60565Z" fill="url(#paint2_linear_13223_16755)"/>
<path d="M22.3829 26.422C22.2111 26.2502 21.9739 26.1521 21.7285 26.1521C21.7285 26.1521 19.7653 26.1521 18.3952 25.3832C17.7694 25.0314 17.2705 24.5202 17.1396 23.7758C17.1191 23.649 17.1028 23.5181 17.1028 23.3791V19.3791L18.0271 20.6101C18.6079 21.3832 19.4218 21.9557 20.3502 22.2461C21.25 22.5243 22.2111 22.5243 23.1069 22.2461L16.1784 13.9517L9.25 22.2461C10.1457 22.5243 11.1069 22.5283 12.0066 22.2461C12.9351 21.9557 13.7449 21.3832 14.3298 20.6101L15.2541 19.3791V23.3791C15.2541 23.5181 15.2377 23.649 15.2173 23.7758C15.0864 24.5202 14.5874 25.0314 13.9617 25.3832C12.5915 26.1521 10.6283 26.1521 10.6283 26.1521C10.3829 26.1521 10.1457 26.2502 9.97393 26.422C9.88804 26.5079 9.81851 26.6101 9.77352 26.7206C9.72853 26.831 9.70399 26.9496 9.70399 27.0723C9.70399 27.3177 9.80215 27.5508 9.97393 27.7267C10.1457 27.8985 10.3829 27.9966 10.6283 27.9966H21.7285C21.9739 27.9966 22.2111 27.8985 22.3829 27.7267C22.5547 27.5549 22.6529 27.3177 22.6529 27.0723C22.6529 26.9496 22.6283 26.831 22.5833 26.7206C22.5383 26.6101 22.4688 26.5079 22.3829 26.422Z" fill="url(#paint3_linear_13223_16755)"/>
<defs>
<linearGradient id="paint0_linear_13223_16755" x1="16.2863" y1="25.3579" x2="16.0082" y2="5.91411" gradientUnits="userSpaceOnUse">
<stop stop-color="#0000CF"/>
<stop offset="1" stop-color="#30FFFF"/>
</linearGradient>
<linearGradient id="paint1_linear_13223_16755" x1="8.16767" y1="21.4186" x2="15.8568" y2="12.118" gradientUnits="userSpaceOnUse">
<stop stop-color="#00FFC0"/>
<stop offset="1" stop-color="#0037A0"/>
</linearGradient>
<linearGradient id="paint2_linear_13223_16755" x1="16.1758" y1="15.9288" x2="25.3987" y2="15.9288" gradientUnits="userSpaceOnUse">
<stop stop-color="#00FFC0"/>
<stop offset="1" stop-color="#0037A0"/>
</linearGradient>
<linearGradient id="paint3_linear_13223_16755" x1="16.1743" y1="13.3382" x2="16.1743" y2="29.6981" gradientUnits="userSpaceOnUse">
<stop stop-color="#FFA300"/>
<stop offset="1" stop-color="#FF2742"/>
</linearGradient>
</defs>
</svg>
