<svg width="32" height="32" viewBox="0 0 32 32" fill="none" xmlns="http://www.w3.org/2000/svg">
<g clip-path="url(#clip0_13176_21050)">
<path d="M20.5857 5.81641C17.4637 5.82205 14.9676 8.27436 14.9493 11.4124C14.931 14.5734 17.5144 17.0407 20.5293 17.0591C23.6348 17.0732 26.168 14.5997 26.1905 11.4589C26.2126 8.3693 23.6748 5.81124 20.5857 5.81641Z" fill="url(#paint0_linear_13176_21050)"/>
<path d="M20.1674 5.81641H21.0881C21.2356 5.86857 21.3921 5.86011 21.5439 5.8869C21.9871 5.96586 22.4214 6.07395 22.8317 6.26382L22.5821 6.3127C22.591 6.33102 22.5929 6.33948 22.5981 6.34465C23.0253 6.76763 23.3745 7.24888 23.672 7.76913C23.6903 7.80156 23.7143 7.82365 23.7462 7.84057C24.4009 8.18976 24.9456 8.66819 25.401 9.25048C25.4329 9.29137 25.4569 9.31205 25.5157 9.2909C25.6186 9.25424 25.7267 9.23356 25.8324 9.20631C25.8639 9.22275 25.8695 9.2533 25.8752 9.28385C25.7737 9.31252 25.6736 9.34636 25.5706 9.36892C25.5048 9.38301 25.4837 9.40134 25.4945 9.47654C25.6007 10.1998 25.5307 10.909 25.3061 11.6036C25.2934 11.6422 25.2877 11.676 25.3032 11.7169C25.5063 12.2574 25.5913 12.8237 25.6693 13.3914C25.7004 13.6179 25.6985 13.6179 25.8954 13.5079C25.9123 13.4985 25.9306 13.4924 25.9485 13.4849C25.9753 13.5267 25.9415 13.5582 25.9288 13.5921C25.7615 14.031 25.5335 14.4376 25.2633 14.8201C24.9164 15.3117 24.4907 15.7276 24.0136 16.0918C23.9521 16.0124 24.023 15.9452 24.0395 15.8766C24.0611 15.7868 24.0578 15.768 23.9577 15.7939C23.4967 15.9118 23.0272 15.9969 22.5516 15.9842C22.2282 15.9758 21.9481 16.0369 21.6642 16.2014C21.1651 16.4904 20.6139 16.6469 20.0414 16.7249C19.9658 16.7352 19.9207 16.7611 19.9333 16.8513C19.947 16.9481 19.9479 17.0468 19.9545 17.1451L19.8638 17.1441C19.8605 17.1051 19.8506 17.0652 19.8553 17.0271C19.8849 16.786 19.7566 16.6878 19.5456 16.5961C18.9187 16.324 18.343 15.9687 17.9064 15.4254C17.8796 15.3921 17.8448 15.3836 17.8053 15.3751C17.4463 15.2971 17.091 15.2069 16.7474 15.073C16.5364 14.9907 16.3376 14.8854 16.1322 14.7656C16.1322 14.8126 16.1336 14.8436 16.1322 14.8746C16.1303 14.9033 16.1501 14.939 16.1078 14.9555C15.8117 14.548 15.5551 14.1184 15.3671 13.6499C15.1575 13.1268 15.0165 12.5882 14.9766 12.0247C15.0442 12.0731 15.0546 12.1671 15.1293 12.2155C15.1364 12.1963 15.1439 12.1793 15.1486 12.162C15.2943 11.5815 15.5151 11.0317 15.8192 10.5156C15.8404 10.4799 15.8465 10.4447 15.8446 10.4038C15.8126 9.71246 15.971 9.06014 16.2502 8.4332C16.3442 8.22172 16.3414 8.21279 16.12 8.13336C16.1092 8.1296 16.0965 8.13054 16.0852 8.1296C16.0848 8.07885 16.1087 8.04689 16.1571 8.03232C16.2149 8.06428 16.2751 8.09247 16.3291 8.12913C16.3808 8.16438 16.417 8.15639 16.4631 8.11738C16.996 7.66621 17.6089 7.36966 18.2767 7.17979C18.3425 7.16099 18.397 7.13044 18.4482 7.08392C18.8411 6.72674 19.2618 6.40575 19.7125 6.12471C19.783 6.08053 19.8549 6.03823 19.9272 5.99406C19.8793 5.93249 19.8008 5.94283 19.7646 5.88643C19.8976 5.85259 20.0391 5.86857 20.1688 5.81641H20.1674ZM20.9706 8.90129C21.3465 8.95863 21.7225 9.01409 22.0976 9.07565C22.1657 9.08693 22.2038 9.07236 22.2428 9.0155C22.3899 8.80119 22.5657 8.61132 22.7518 8.43038C22.9976 8.19117 23.2772 7.99707 23.5573 7.8025C23.6165 7.76819 23.5592 7.74094 23.5469 7.71979C23.2532 7.21457 22.905 6.75118 22.4825 6.34559C22.4444 6.30894 22.4035 6.28403 22.3528 6.27134C21.637 6.09369 20.9132 5.98372 20.173 6.00486C20.1039 6.00674 20.0438 6.02178 19.9841 6.05656C19.4681 6.35358 18.992 6.70512 18.5483 7.10225C18.4877 7.15629 18.4854 7.18919 18.5352 7.25264C18.8731 7.68031 19.1414 8.14981 19.3435 8.65597C19.3684 8.71801 19.3995 8.74667 19.47 8.75184C19.9714 8.78897 20.471 8.84161 20.9701 8.90129H20.9706ZM23.0727 11.3146C23.0497 11.2535 23.0286 11.1915 23.0032 11.1313C22.7442 10.5138 22.4815 9.8981 22.2277 9.27821C22.192 9.1908 22.1408 9.15978 22.0581 9.14803C21.6934 9.09586 21.3292 9.04135 20.9649 8.98777C20.4705 8.91774 19.9738 8.87357 19.4765 8.83315C19.3952 8.82657 19.3478 8.85289 19.2998 8.91492C18.7927 9.571 18.2842 10.2261 17.7719 10.8785C17.716 10.9499 17.708 11.0072 17.7395 11.0909C18.0455 11.9077 18.3914 12.7071 18.7636 13.4957C18.7988 13.5705 18.8491 13.5878 18.9168 13.5968C19.6913 13.7016 20.4672 13.797 21.2394 13.9182C21.4462 13.9507 21.5552 13.8929 21.6779 13.7373C22.1967 13.0798 22.7034 12.4139 23.1536 11.707C23.1794 11.6666 23.2213 11.6299 23.1902 11.5698C23.1475 11.4866 23.1118 11.3997 23.0732 11.3146H23.0727ZM22.4679 15.8832C23.0117 15.8846 23.5455 15.8099 24.0696 15.6637C24.125 15.6482 24.1692 15.6256 24.2096 15.5852C24.6533 15.1364 25.0419 14.6457 25.3883 14.117C25.5655 13.8468 25.6468 13.5893 25.5782 13.2617C25.4795 12.7894 25.4203 12.3095 25.2685 11.8485C25.2374 11.7545 25.1951 11.7296 25.0993 11.7437C24.5113 11.8316 23.9248 11.841 23.3439 11.691C23.2889 11.6769 23.2584 11.6878 23.2292 11.7371C23.1776 11.825 23.1197 11.9096 23.0634 11.9946C22.6183 12.6672 22.1286 13.3068 21.6215 13.9333C21.5886 13.9737 21.5439 14.0056 21.5801 14.0757C21.825 14.5508 21.9636 15.0617 22.0792 15.5801C22.1018 15.6816 22.0712 15.8244 22.1558 15.8738C22.2348 15.9198 22.3617 15.8837 22.4674 15.8837L22.4679 15.8832ZM15.2007 12.3701C15.2087 12.4139 15.2158 12.4604 15.2252 12.5064C15.3737 13.2128 15.6669 13.8595 16.0255 14.4813C16.0979 14.6063 16.1928 14.6918 16.315 14.7614C16.7742 15.0217 17.2766 15.1547 17.7851 15.2736C17.8678 15.2929 17.8768 15.2412 17.8913 15.1886C18.0394 14.6429 18.2955 14.1523 18.6517 13.7147C18.7119 13.641 18.7194 13.5841 18.6776 13.4981C18.3025 12.7236 17.9623 11.934 17.6681 11.1252C17.6328 11.0284 17.583 10.995 17.4839 10.9851C16.9697 10.9334 16.4687 10.8249 16.002 10.5951C15.9198 10.5547 15.8888 10.5777 15.8498 10.6486C15.6599 10.9931 15.501 11.3503 15.376 11.723C15.3051 11.935 15.2468 12.1502 15.2007 12.3711V12.3701Z" fill="#000B27"/>
<path d="M12.2798 12.8854C12.3099 7.69924 16.4353 3.64574 21.5951 3.63681C22.8363 3.63446 24.0235 3.88355 25.1096 4.33378C24.1687 3.72986 23.0934 3.30219 21.9246 3.1048C21.7375 3.07332 21.5411 3.08882 21.3644 3H19.8638C19.547 3.10856 19.211 3.10809 18.8862 3.1753C17.1013 3.54423 15.5931 4.40521 14.3519 5.72912C13.9088 6.20191 13.538 6.7358 13.2146 7.29976C11.6341 10.0538 10.0522 12.8074 8.47167 15.5614C7.85883 16.6296 7.24458 17.6969 6.6355 18.7675C6.3709 19.2328 6.55466 19.723 7.03262 19.8522C7.24317 19.9091 7.43915 19.8673 7.61069 19.7413C8.47825 19.1059 9.37919 18.5156 10.2171 17.8389C10.2604 17.8036 10.3201 17.789 10.4056 17.7984C8.60327 20.5713 6.80187 23.3436 5 26.1155V26.4906C5.01598 26.5047 5.03854 26.5155 5.04794 26.5328C5.30736 27.0277 5.6965 27.1344 6.16741 26.8299C7.03168 26.2711 7.89361 25.7081 8.75648 25.1469C10.5005 24.0129 12.2446 22.8788 13.9887 21.7453C14.0474 21.7072 14.109 21.6743 14.1696 21.6386C14.1884 21.6334 14.218 21.6179 14.2236 21.6245C14.2429 21.6461 14.2251 21.6625 14.2034 21.6738C13.702 22.3797 13.2005 23.0856 12.6986 23.791C12.5538 23.9945 12.4025 24.1938 12.2643 24.402C12.0693 24.6967 12.0904 25.0186 12.3099 25.2663C12.5261 25.5107 12.857 25.5849 13.1625 25.4124C14.147 24.856 15.1218 24.2826 16.1031 23.7201C17.0759 23.1627 18.0534 22.6138 19.0263 22.0564C19.1038 22.0122 19.1809 21.968 19.2584 21.9234C15.3041 20.8988 12.2554 17.3012 12.2808 12.884L12.2798 12.8854Z" fill="url(#paint1_linear_13176_21050)"/>
<path d="M20.5204 18.4432C24.3977 18.4432 27.5408 15.3 27.5408 11.4228C27.5408 7.54549 24.3977 4.40234 20.5204 4.40234C16.6432 4.40234 13.5 7.54549 13.5 11.4228C13.5 15.3 16.6432 18.4432 20.5204 18.4432Z" stroke="white" stroke-miterlimit="10"/>
<path d="M28.5993 14.0113C29.8231 10.1613 28.1838 6.30664 25.1111 4.3337C24.0255 3.88347 22.8384 3.63439 21.5967 3.63674C16.4369 3.64566 12.3115 7.69916 12.2814 12.8853C12.256 17.3025 15.3043 20.9002 19.2591 21.9247C21.1004 20.8701 22.9469 19.8244 24.7765 18.7496C26.6404 17.6546 27.9404 16.0839 28.5993 14.0118V14.0113ZM13.5019 11.4227C13.5019 7.54548 16.6451 4.40232 20.5223 4.40232C24.3996 4.40232 27.5428 7.54548 27.5428 11.4227C27.5428 15.3 24.3996 18.4432 20.5223 18.4432C16.6451 18.4432 13.5019 15.3 13.5019 11.4227Z" fill="url(#paint2_linear_13176_21050)"/>
<path d="M20.5204 4.40234C16.6432 4.40234 13.5 7.54551 13.5 11.4228C13.5 15.3 16.6432 18.4432 20.5204 18.4432C24.3977 18.4432 27.5408 15.3 27.5408 11.4228C27.5408 7.54551 24.3977 4.40234 20.5204 4.40234ZM20.5303 17.061C17.5154 17.0427 14.932 14.5753 14.9503 11.4143C14.9687 8.27631 17.4647 5.82401 20.5867 5.81837C23.6758 5.8132 26.2137 8.37125 26.1916 11.4608C26.1695 14.6021 23.6363 17.0751 20.5303 17.061Z" fill="url(#paint3_linear_13176_21050)"/>
</g>
<defs>
<linearGradient id="paint0_linear_13176_21050" x1="24.5" y1="6.99902" x2="17.5" y2="15.999" gradientUnits="userSpaceOnUse">
<stop offset="0.407473" stop-color="#6AFFA6"/>
<stop offset="1" stop-color="#00A3FF"/>
</linearGradient>
<linearGradient id="paint1_linear_13176_21050" x1="25.0504" y1="4.06448" x2="8.68739" y2="23.424" gradientUnits="userSpaceOnUse">
<stop stop-color="#FFA300"/>
<stop offset="1" stop-color="#FF2742"/>
</linearGradient>
<linearGradient id="paint2_linear_13176_21050" x1="12.7072" y1="11.8631" x2="30.1074" y2="13.861" gradientUnits="userSpaceOnUse">
<stop stop-color="#FFA300"/>
<stop offset="1" stop-color="#FF2742"/>
</linearGradient>
<linearGradient id="paint3_linear_13176_21050" x1="14" y1="15.501" x2="22" y2="9.00098" gradientUnits="userSpaceOnUse">
<stop stop-color="#00FFC0"/>
<stop offset="1" stop-color="#0037A0"/>
</linearGradient>
<clipPath id="clip0_13176_21050">
<rect width="24.0052" height="24" fill="white" transform="translate(5 3)"/>
</clipPath>
</defs>
</svg>
