<svg width="32" height="32" viewBox="0 0 32 32" fill="none" xmlns="http://www.w3.org/2000/svg">
<g clip-path="url(#clip0_13223_16777)">
<path d="M5.33203 15.2769L11.087 6.22217L15.9987 15.7641L10.2562 24.7317L5.33203 15.2769Z" fill="url(#paint0_linear_13223_16777)"/>
<path d="M20.8521 25.3049L26.667 16.231L16.0004 15.7642L10.2578 24.7318L20.8521 25.3049Z" fill="url(#paint1_linear_13223_16777)"/>
<path d="M11.0859 6.22217L21.8035 6.74555L15.9976 15.7641L11.0859 6.22217Z" fill="url(#paint2_linear_13223_16777)"/>
<path d="M26.6667 16.231L21.8059 6.74561L16 15.7641L26.6667 16.231Z" fill="url(#paint3_linear_13223_16777)"/>
<path d="M11.0134 12.6083C11.5235 12.6083 11.937 12.1949 11.937 11.6848C11.937 11.1747 11.5235 10.7612 11.0134 10.7612C10.5033 10.7612 10.0898 11.1747 10.0898 11.6848C10.0898 12.1949 10.5033 12.6083 11.0134 12.6083Z" fill="#121F3E"/>
<path d="M10.3415 19.1591C10.8516 19.1591 11.2651 18.7456 11.2651 18.2356C11.2651 17.7255 10.8516 17.312 10.3415 17.312C9.83146 17.312 9.41797 17.7255 9.41797 18.2356C9.41797 18.7456 9.83146 19.1591 10.3415 19.1591Z" fill="#121F3E"/>
<path d="M15.7009 22.3632C16.211 22.3632 16.6245 21.9497 16.6245 21.4397C16.6245 20.9296 16.211 20.5161 15.7009 20.5161C15.1908 20.5161 14.7773 20.9296 14.7773 21.4397C14.7773 21.9497 15.1908 22.3632 15.7009 22.3632Z" fill="#121F3E"/>
<path d="M21.1384 19.1591C21.6485 19.1591 22.062 18.7456 22.062 18.2356C22.062 17.7255 21.6485 17.312 21.1384 17.312C20.6283 17.312 20.2148 17.7255 20.2148 18.2356C20.2148 18.7456 20.6283 19.1591 21.1384 19.1591Z" fill="#121F3E"/>
<path d="M18.6645 13.3353C19.6463 13.3353 20.4423 12.5394 20.4423 11.5576C20.4423 10.5757 19.6463 9.77979 18.6645 9.77979C17.6827 9.77979 16.8867 10.5757 16.8867 11.5576C16.8867 12.5394 17.6827 13.3353 18.6645 13.3353Z" fill="url(#paint4_linear_13223_16777)"/>
<path d="M8.49387 15.8354C9.00393 15.8354 9.41742 15.4219 9.41742 14.9118C9.41742 14.4018 9.00393 13.9883 8.49387 13.9883C7.9838 13.9883 7.57031 14.4018 7.57031 14.9118C7.57031 15.4219 7.9838 15.8354 8.49387 15.8354Z" fill="#121F3E"/>
<path d="M12.8611 16.3539C13.3711 16.3539 13.7846 15.9405 13.7846 15.4304C13.7846 14.9203 13.3711 14.5068 12.8611 14.5068C12.351 14.5068 11.9375 14.9203 11.9375 15.4304C11.9375 15.9405 12.351 16.3539 12.8611 16.3539Z" fill="#121F3E"/>
</g>
<defs>
<linearGradient id="paint0_linear_13223_16777" x1="6.0815" y1="18.3742" x2="13.5954" y2="13.631" gradientUnits="userSpaceOnUse">
<stop stop-color="#00FFC0"/>
<stop offset="1" stop-color="#0037A0"/>
</linearGradient>
<linearGradient id="paint1_linear_13223_16777" x1="8.43557" y1="37.9883" x2="20.3231" y2="17.2314" gradientUnits="userSpaceOnUse">
<stop stop-color="#00FFC0"/>
<stop offset="1" stop-color="#0037A0"/>
</linearGradient>
<linearGradient id="paint2_linear_13223_16777" x1="21.3309" y1="6.22217" x2="10.7773" y2="9.23814" gradientUnits="userSpaceOnUse">
<stop stop-color="#0037A0"/>
<stop offset="1" stop-color="#00FFC0"/>
</linearGradient>
<linearGradient id="paint3_linear_13223_16777" x1="18" y1="7.50342" x2="24.9066" y2="16.5192" gradientUnits="userSpaceOnUse">
<stop stop-color="#00FFC0"/>
<stop offset="1" stop-color="#0037A0"/>
</linearGradient>
<linearGradient id="paint4_linear_13223_16777" x1="16.8867" y1="11.5576" x2="20.4423" y2="11.5576" gradientUnits="userSpaceOnUse">
<stop stop-color="#FFA300"/>
<stop offset="1" stop-color="#FF2742"/>
</linearGradient>
<clipPath id="clip0_13223_16777">
<rect width="21.3333" height="21.3333" fill="white" transform="translate(5.33203 5.3335)"/>
</clipPath>
</defs>
</svg>
