<svg xmlns="http://www.w3.org/2000/svg" version="1.1" xmlns:xlink="http://www.w3.org/1999/xlink" xmlns:svgjs="http://svgjs.dev/svgjs" width="1000" height="154" viewBox="0 0 1000 154"><g transform="matrix(1,0,0,1,-0.6060531613669013,0.09362772452213619)"><svg viewBox="0 0 396 61" data-background-color="#ffffff" preserveAspectRatio="xMidYMid meet" height="154" width="1000" xmlns="http://www.w3.org/2000/svg" xmlns:xlink="http://www.w3.org/1999/xlink"><g id="tight-bounds" transform="matrix(1,0,0,1,0.23999705190129816,-0.037086306466562746)"><svg viewBox="0 0 395.52 61.07416983523448" height="61.07416983523448" width="395.52"><g><svg viewBox="0 0 395.52 61.07416983523448" height="61.07416983523448" width="395.52"><g><svg viewBox="0 0 395.52 61.07416983523448" height="61.07416983523448" width="395.52"><g><svg viewBox="0 0 395.52 61.07416983523448" height="61.07416983523448" width="395.52"><g><svg viewBox="0 0 395.52 61.07416983523448" height="61.07416983523448" width="395.52"><g transform="matrix(1,0,0,1,0,0)"><svg width="395.52" viewBox="0.7499995231628418 -32.95000076293945 236.6999969482422 33.54999923706055" height="61.07416983523448" data-palette-color="#0dabff"><svg></svg><g class="undefined-text-0" data-fill-palette-color="primary" id="text-0"><path xmlns="http://www.w3.org/2000/svg" d="M16 0.55c-4.8 0-8.54-1.417-11.22-4.25-2.687-2.833-4.03-6.783-4.03-11.85v0c0-5.667 1.543-9.983 4.63-12.95 3.08-2.967 7.553-4.45 13.42-4.45v0c1.4 0 2.85 0.1 4.35 0.3 1.5 0.2 2.777 0.4 3.83 0.6 1.047 0.2 1.703 0.333 1.97 0.4v0l0.55 1c-0.067 0.233-0.19 0.79-0.37 1.67-0.187 0.887-0.38 2.08-0.58 3.58-0.2 1.5-0.35 3.117-0.45 4.85v0l-7.7 0.45c0-0.133 0.017-0.443 0.05-0.93 0.033-0.48 0.05-1.087 0.05-1.82v0c0-1.233-0.207-2.077-0.62-2.53-0.42-0.447-1.197-0.67-2.33-0.67v0c-1.4 0-2.483 0.267-3.25 0.8-0.767 0.533-1.317 1.423-1.65 2.67-0.333 1.253-0.5 2.997-0.5 5.23v0c0 3.8 0.41 6.557 1.23 8.27 0.813 1.72 2.137 2.58 3.97 2.58v0c0.533 0 0.993-0.043 1.38-0.13 0.38-0.08 0.67-0.17 0.87-0.27 0.2-0.1 0.317-0.167 0.35-0.2v0-3.15c0-0.8-0.107-1.343-0.32-1.63-0.22-0.28-0.647-0.42-1.28-0.42v0l-1.65 0.05-0.45-0.7 0.6-4.75h7.65c1.267 0 2.483-0.027 3.65-0.08 1.167-0.047 1.933-0.103 2.3-0.17v0l0.5 2.9c-0.8 0.467-1.373 0.957-1.72 1.47-0.353 0.52-0.587 1.303-0.7 2.35-0.12 1.053-0.18 2.73-0.18 5.03v0c0 1.9 0.117 3.333 0.35 4.3v0l-0.6 0.8c0 0.033-0.517 0.19-1.55 0.47-1.033 0.287-2.45 0.557-4.25 0.81-1.8 0.247-3.9 0.37-6.3 0.37zM32.6 0.4l0.4-3.9c1-0.133 1.683-0.45 2.05-0.95 0.367-0.5 0.55-1.333 0.55-2.5v0l0.05-12.4c0-0.867-0.067-1.433-0.2-1.7-0.133-0.267-0.417-0.4-0.85-0.4v0l-1.05 0.05-0.55-0.6 0.4-3.3c0.7 0 2.027 0.017 3.98 0.05 1.947 0.033 4.003 0.05 6.17 0.05v0c2.5 0 4.983-0.043 7.45-0.13 2.467-0.08 4.283-0.187 5.45-0.32v0l0.6 0.65c-0.1 0.5-0.257 1.573-0.47 3.22-0.22 1.653-0.38 3.247-0.48 4.78v0l-6.25 0.35c0-0.1 0.017-0.283 0.05-0.55 0.033-0.267 0.05-0.55 0.05-0.85v0c0-0.8-0.25-1.333-0.75-1.6-0.5-0.267-1.5-0.4-3-0.4v0c-0.5 0-0.833 0.067-1 0.2-0.167 0.133-0.25 0.383-0.25 0.75v0l-0.2 3.85h3.25c0.833 0 1.7-0.027 2.6-0.08 0.9-0.047 1.533-0.087 1.9-0.12v0l0.55 0.65-0.6 4.85c-0.333 0-0.967-0.017-1.9-0.05-0.933-0.033-1.917-0.05-2.95-0.05v0c-0.567 0-1.167 0.023-1.8 0.07-0.633 0.053-1.067 0.097-1.3 0.13v0c-0.033 0.367-0.04 0.817-0.02 1.35 0.013 0.533 0.02 0.933 0.02 1.2v0c0 1 0.1 1.64 0.3 1.92 0.2 0.287 0.7 0.43 1.5 0.43v0c1.1 0 1.927-0.1 2.48-0.3 0.547-0.2 0.963-0.577 1.25-1.13 0.28-0.547 0.503-1.403 0.67-2.57v0l5.75-0.4 0.55 0.65c-0.1 0.467-0.273 1.507-0.52 3.12-0.253 1.62-0.463 3.347-0.63 5.18v0l-0.7 0.65c-0.767-0.033-2.49-0.083-5.17-0.15-2.687-0.067-5.43-0.1-8.23-0.1v0c-1.867 0-3.723 0.06-5.57 0.18-1.853 0.113-3.047 0.187-3.58 0.22zM79.6 0.6c-1.233 0-2.21-0.26-2.93-0.78-0.713-0.513-1.337-1.42-1.87-2.72v0l-2.3-5.65h-2.2v2.1c0 0.8 0.067 1.373 0.2 1.72 0.133 0.353 0.393 0.587 0.78 0.7 0.38 0.12 1.037 0.213 1.97 0.28v0l0.25 0.35-0.45 3.55c-0.567 0-1.583-0.023-3.05-0.07-1.467-0.053-2.817-0.08-4.05-0.08v0c-1.333 0-2.8 0.06-4.4 0.18-1.6 0.113-2.633 0.187-3.1 0.22v0l0.35-3.9c1-0.167 1.693-0.5 2.08-1 0.38-0.5 0.57-1.283 0.57-2.35v0-13c0-0.6-0.073-1.017-0.22-1.25-0.153-0.233-0.413-0.35-0.78-0.35v0l-1.5 0.05-0.45-0.5 0.5-3.35 6.05 0.05c1.4 0 2.927-0.033 4.58-0.1 1.647-0.067 2.787-0.117 3.42-0.15v0c4 0 6.983 0.617 8.95 1.85 1.967 1.233 2.95 3.117 2.95 5.65v0c0 3.033-1.617 5.483-4.85 7.35v0l2.3 3.55c0.7 1.067 1.39 1.907 2.07 2.52 0.687 0.62 1.297 0.93 1.83 0.93v0l0.5 0.7-0.4 3.1zM73.45-13.55c0.967-0.4 1.583-0.85 1.85-1.35 0.267-0.5 0.4-1.25 0.4-2.25v0c0-1-0.343-1.727-1.03-2.18-0.68-0.447-1.77-0.67-3.27-0.67v0c-0.267 0-0.44 0.05-0.52 0.15-0.087 0.1-0.147 0.333-0.18 0.7v0c-0.1 1.033-0.183 2.767-0.25 5.2v0zM121.9-3.85l0.3 0.35-0.35 3.6-4.65-0.1c-1 0-2.59 0.033-4.77 0.1-2.187 0.067-3.413 0.133-3.68 0.2v0l0.5-3.85c0.767-0.067 1.31-0.243 1.63-0.53 0.313-0.28 0.47-0.737 0.47-1.37v0-7.55h-0.6c0.133-0.533-0.017-0.15-0.45 1.15-0.433 1.3-0.983 3.017-1.65 5.15-0.667 2.133-1.317 4.367-1.95 6.7v0l-5.75 0.4c-0.7-2.533-1.373-4.893-2.02-7.08-0.653-2.18-1.187-3.92-1.6-5.22-0.42-1.3-0.547-1.667-0.38-1.1v0h-0.6l-0.05 7.95c0 0.867 0.467 1.3 1.4 1.3v0l1-0.05 0.4 0.3-0.5 3.65c-0.533 0-1.44-0.023-2.72-0.07-1.287-0.053-2.447-0.08-3.48-0.08v0c-0.767 0-1.7 0.033-2.8 0.1-1.1 0.067-1.833 0.133-2.2 0.2v0l0.3-3.8c0.8-0.067 1.383-0.29 1.75-0.67 0.367-0.387 0.567-0.997 0.6-1.83v0l0.2-2c0.8-7.2 1.2-11.1 1.2-11.7v0c0-0.533-0.033-0.883-0.1-1.05-0.067-0.167-0.223-0.277-0.47-0.33-0.253-0.047-0.88-0.137-1.88-0.27v0l-0.35-0.35 0.45-3.7c0.5 0.033 1.383 0.073 2.65 0.12 1.267 0.053 2.483 0.08 3.65 0.08v0c1.4 0 2.767-0.017 4.1-0.05 1.333-0.033 2.25-0.067 2.75-0.1v0c0.367 1.967 0.833 4.133 1.4 6.5 0.567 2.367 0.95 3.9 1.15 4.6v0h0.6c0.2-0.7 0.633-2.217 1.3-4.55 0.667-2.333 1.233-4.467 1.7-6.4v0l5 0.05c1.467 0 2.567-0.033 3.3-0.1v0l3.85-0.2 0.3 0.15-0.35 3.8c-1.133 0.033-1.857 0.167-2.17 0.4-0.32 0.233-0.48 0.75-0.48 1.55v0c0 1.267 0.1 3.233 0.3 5.9 0.2 2.667 0.4 4.85 0.6 6.55v0c0.067 1.233 0.243 2.09 0.53 2.57 0.28 0.487 0.737 0.73 1.37 0.73v0c0.3 0 0.567-0.01 0.8-0.03 0.233-0.013 0.383-0.02 0.45-0.02zM90.05-6zM136.75 0.2l-0.35-0.35 0.25-3.6c0.7-0.067 1.257-0.143 1.67-0.23 0.42-0.08 0.67-0.187 0.75-0.32 0.087-0.133 0.13-0.383 0.13-0.75v0l-0.05-0.45-0.1-1.05c-0.767-0.033-1.783-0.05-3.05-0.05v0c-0.367 0-1.017 0.033-1.95 0.1v0l-1.2 0.05-0.3 1.3-0.05 0.7c0 0.3 0.05 0.483 0.15 0.55 0.1 0.067 0.417 0.1 0.95 0.1v0h0.9l0.4 0.45-0.35 3.5c-0.433 0-1.283-0.017-2.55-0.05-1.267-0.033-2.583-0.05-3.95-0.05v0h-5.65l0.3-3.65c0.933-0.267 1.583-0.917 1.95-1.95v0l6.4-19.45 12.05-0.65 0.65 0.55c0.433 1.633 1.173 4.457 2.22 8.47 1.053 4.02 1.98 7.48 2.78 10.38v0c0.233 0.867 0.527 1.5 0.88 1.9 0.347 0.4 0.803 0.633 1.37 0.7v0l0.3 0.45-0.35 3.3-6-0.05c-2 0-3.75 0.017-5.25 0.05-1.5 0.033-2.483 0.067-2.95 0.1zM134.25-11.9h1.9c0.8 0 1.45-0.017 1.95-0.05v0l-1.2-6.2h-0.95zM172.4-14.25l-0.2-5.55c-0.067-0.667-0.183-1.117-0.35-1.35-0.167-0.233-0.5-0.35-1-0.35v0h-1.25l-0.25-0.45 0.2-3.4c0.533 0 1.517 0.023 2.95 0.07 1.433 0.053 2.867 0.08 4.3 0.08v0c4 0 6-0.033 6-0.1v0l-0.2 3.8c-0.867 0.133-1.467 0.373-1.8 0.72-0.333 0.353-0.517 0.93-0.55 1.73v0l-0.55 18.85-8.65 0.45c-1.733-2.633-3.333-5-4.8-7.1-1.467-2.1-2.4-3.433-2.8-4v0h-0.7l0.2 5.15c0.033 0.8 0.157 1.34 0.37 1.62 0.22 0.287 0.647 0.43 1.28 0.43v0c0.267 0 0.527-0.017 0.78-0.05 0.247-0.033 0.42-0.067 0.52-0.1v0l0.45 0.35-0.5 3.6c-0.533 0-1.473-0.023-2.82-0.07-1.353-0.053-2.63-0.08-3.83-0.08v0c-1.233 0-2.56 0.043-3.98 0.13-1.413 0.08-2.32 0.137-2.72 0.17v0l0.45-3.8c0.8-0.1 1.377-0.343 1.73-0.73 0.347-0.38 0.537-0.953 0.57-1.72v0l0.5-12.95c0-0.633-0.073-1.1-0.22-1.4-0.153-0.3-0.437-0.527-0.85-0.68-0.42-0.147-1.08-0.27-1.98-0.37v0l-0.55-0.6 0.25-3.45c0.367 0.033 1.2 0.073 2.5 0.12 1.3 0.053 2.633 0.08 4 0.08v0c1.233 0 2.393-0.017 3.48-0.05 1.08-0.033 1.803-0.067 2.17-0.1v0c1.367 2.333 2.79 4.607 4.27 6.82 1.487 2.22 2.447 3.647 2.88 4.28v0zM188.55 0.35l0.3-3.9c1.233-0.067 2.16-0.183 2.78-0.35 0.613-0.167 1.047-0.443 1.3-0.83 0.247-0.38 0.37-0.953 0.37-1.72v0-0.4c0-0.533-0.083-1.043-0.25-1.53-0.167-0.48-0.467-1.087-0.9-1.82v0l-4.55-7.85c-0.7-1.033-2.017-2.05-3.95-3.05v0l-0.2-0.25 0.45-3.9 6.45 0.1c0.767 0 2.077-0.043 3.93-0.13 1.847-0.08 3.087-0.137 3.72-0.17v0l0.35 0.5-0.45 3.5c-1-0.067-1.5 0.233-1.5 0.9v0c0 0.167 0.14 0.573 0.42 1.22 0.287 0.653 0.48 1.08 0.58 1.28v0l1.05 2.45h0.6l1.3-3.7c0.367-0.733 0.55-1.3 0.55-1.7v0c0-0.2-0.11-0.343-0.33-0.43-0.213-0.08-0.587-0.103-1.12-0.07v0l-0.15-0.25 0.35-3.35 6.8-0.05c1.133 0 2.15-0.017 3.05-0.05 0.9-0.033 1.5-0.067 1.8-0.1v0l0.15 0.3-0.35 3.75c-0.833 0.5-1.667 1.2-2.5 2.1-0.833 0.9-1.5 1.817-2 2.75v0l-3.7 7.1c-0.267 0.6-0.433 1.117-0.5 1.55-0.067 0.433-0.1 0.917-0.1 1.45v0c0 0.9 0.15 1.533 0.45 1.9 0.3 0.367 0.85 0.55 1.65 0.55v0c0.533 0 0.993-0.017 1.38-0.05 0.38-0.033 0.637-0.067 0.77-0.1v0l0.2 0.25-0.35 4c-0.7-0.033-1.977-0.083-3.83-0.15-1.847-0.067-3.587-0.1-5.22-0.1v0c-1.133 0-2.717 0.05-4.75 0.15-2.033 0.1-3.383 0.167-4.05 0.2zM213.8 0.3l-1.6-2.45 13.25-18.55-2.65 0.4c-1.1 0.233-1.883 0.473-2.35 0.72-0.467 0.253-0.773 0.63-0.92 1.13-0.153 0.5-0.247 1.317-0.28 2.45v0l-5.7 0.35c0.067-0.667 0.177-2.06 0.33-4.18 0.147-2.113 0.237-3.937 0.27-5.47v0l0.5-0.4 7.5 0.4 14.15-0.05 1.15 2.3c-4.233 5.167-8.75 11.283-13.55 18.35v0l3.8-0.65c1.333-0.267 2.293-0.793 2.88-1.58 0.58-0.78 0.937-2.037 1.07-3.77v0l5.65-0.4c-0.1 0.7-0.273 2.183-0.52 4.45-0.253 2.267-0.397 4.217-0.43 5.85v0l-0.9 0.9-18.15-0.2z" fill="#0dabff" fill-rule="nonzero" stroke="none" stroke-width="1" stroke-linecap="butt" stroke-linejoin="miter" stroke-miterlimit="10" stroke-dasharray="" stroke-dashoffset="0" font-family="none" font-weight="none" font-size="none" text-anchor="none" style="mix-blend-mode: normal" data-fill-palette-color="primary" opacity="1"></path></g></svg></g></svg></g></svg></g></svg></g></svg></g><defs></defs></svg><rect width="395.52" height="61.07416983523448" fill="none" stroke="none" visibility="hidden"></rect></g></svg></g></svg>